<svg xmlns="http://www.w3.org/2000/svg" viewBox="0 0 800.79 221.09"><defs><style>.cls-1{fill:#d49901;}</style></defs><title>flicts</title><g id="Layer_2" data-name="Layer 2"><g id="Layer_1-2" data-name="Layer 1"><path class="cls-1" d="M0,11.35c2.35,0,122.09-.78,122.09-.78l1.56,50.86H41.48V92l62.61-1.57-1.57,50.87H46.17l3.92,78.26-47,1.57Z"/><path class="cls-1" d="M133,.39S177.65-1.17,177.65,2s-.78,144-.78,144l74.35-.79.78,69.66-116.61-1.57Z"/><polygon class="cls-1" points="258.26 11.35 319.3 12.13 316.17 212.48 262.17 213.26 258.26 11.35"/><path class="cls-1" d="M327.91,113.87s0-116.61,144-108.78V58.3l-85.3-.78L389,157.7h82.17l4.7,53.21S332.61,238.3,327.91,113.87Z"/><polygon class="cls-1" points="551.74 70.04 484.43 70.83 484.43 7.43 653.48 7.43 651.91 56.74 590.09 57.52 597.13 217.96 550.96 217.96 551.74 70.04"/><path class="cls-1" d="M663.65,141.26l51.65-1.56,1.57,29,32.09-.78,1.56-29.74S662.87,114.65,662.87,56c0,0,7.82-56.35,67.3-52.44,0,0,65-5.48,59.48,65.74L747.39,67.7l-.78-25.83-32.09-.78-.78,34.43s75.13,29.74,82.17,59.48c0,0,30.52,77.48-61,84.52C734.87,219.52,659.74,228.91,663.65,141.26Z"/></g></g></svg>